<svg width="500" height="212" viewBox="0 0 500 212" fill="none" xmlns="http://www.w3.org/2000/svg">
<g clip-path="url(#clip0_25_2)">
<path fill-rule="evenodd" clip-rule="evenodd" d="M246.21 76.57C245.47 77.62 244.72 78.65 243.97 79.67C229.94 98.46 211.93 114.77 187.71 117.61C186.33 117.77 183.24 118.34 182.8 116.41C182.58 115.44 183.23 114.74 183.98 114.28C184.5 113.96 185.08 113.69 185.64 113.45C187.17 112.78 188.76 112.21 190.34 111.65C191.82 111.13 193.31 110.62 194.81 110.13C195.56 109.88 196.37 109.65 197.08 109.38C233.68 94.29 238.76 71.36 251.96 37.43C252.79 35.29 253.53 33.15 254.49 31.08C253.56 30.38 252.85 29.44 252.92 28.2C253.12 24.69 259.32 23.26 262.07 23.11C264.2 23 267.29 22.76 268.99 24.31C269.48 24.76 269.83 25.3 270.14 25.89C271.94 29.33 269.92 35.13 268.61 38.47C266.36 44.17 263.23 49.84 260.12 55.12C258.8 57.35 257.45 59.57 256.07 61.76C258.82 58.81 261.84 56.12 264.95 53.72C282.77 40 306.05 33.61 328.39 34.73C331.4 34.88 334.48 35.25 337.45 35.73C340.35 36.19 343.42 36.78 346.21 37.69C347.94 38.25 351.07 39.35 351.14 41.57C351.18 43.12 349.76 44.06 348.51 44.62C346.86 45.36 341.05 43.87 339.24 43.44C336.73 42.85 334.17 42.14 331.65 41.63C323.94 40.07 315.72 40.35 308.02 41.82C299.65 43.42 291.45 46.49 284.12 50.83C270.89 58.67 260.58 70.61 257.12 85.86C255.94 91.05 255.97 96.56 259.38 100.93C269.73 114.19 303.99 109.36 318.61 107.58C321.87 107.03 325.13 106.53 328.42 106.17C330.64 105.93 332.98 105.72 335.21 105.77C336.76 105.81 339.35 105.94 339.93 107.72C340.26 108.71 339.78 109.63 339.11 110.34C337.82 111.7 333.29 112.4 331.48 112.7C327.27 113.4 322.98 113.87 318.74 114.29C312.42 114.92 305.94 115.48 299.6 115.77C287.13 116.34 272.23 115.7 260.61 110.66C253.1 107.4 246.6 102.06 244.44 93.87C242.92 88.05 243.93 82.04 246.21 76.57Z" fill="white"/>
<path fill-rule="evenodd" clip-rule="evenodd" d="M277.63 3.55998L280.29 9.73999L265.57 19.74L259.13 3.92998L264.79 0.23999L277.63 3.55998Z" fill="white"/>
<path d="M499.29 148.28H491.31V166.43H486.38V148.28H478.43V144.63H499.29V148.28ZM453.97 158.24L450.88 149.77L449.66 153.32L447.82 158.23H453.97V158.24ZM462.28 166.43H456.96L455.34 161.98H446.41L444.74 166.43H439.5L448.42 144.62H453.56L462.28 166.43ZM409.26 154.04H410.94C413.56 154.04 415.23 153.81 415.95 153.34C416.67 152.87 417.03 152.16 417.03 151.18C417.03 150.4 416.7 149.72 416.06 149.14C415.41 148.57 413.82 148.28 411.28 148.28H409.27V154.04H409.26ZM424.36 166.43H418.39L414.91 161.69C413.53 159.81 412.56 158.66 411.99 158.25C411.41 157.84 410.64 157.63 409.69 157.63H409.26V166.43H404.3V144.62H411.46C414.38 144.62 416.54 144.81 417.92 145.19C419.3 145.57 420.36 146.3 421.09 147.36C421.82 148.43 422.18 149.6 422.18 150.89C422.18 152.44 421.65 153.76 420.6 154.86C419.54 155.96 417.91 156.67 415.72 157V157.06C417.23 157.67 418.8 159.06 420.45 161.24L424.36 166.43ZM378.07 158.24L374.98 149.77L373.76 153.32L371.92 158.23H378.07V158.24ZM386.38 166.43H381.06L379.44 161.98H370.51L368.84 166.43H363.6L372.52 144.62H377.66L386.38 166.43ZM348.34 166.43H342.55L335.64 156.23L333.35 158.42V166.43H328.39V144.62H333.35V153.32L342.11 144.62H347.79L338.71 153.29L348.34 166.43ZM272.57 154.04H274.25C276.87 154.04 278.54 153.81 279.26 153.34C279.98 152.87 280.34 152.16 280.34 151.18C280.34 150.4 280.01 149.72 279.37 149.14C278.72 148.57 277.13 148.28 274.59 148.28H272.58V154.04H272.57ZM287.68 166.43H281.71L278.23 161.69C276.85 159.81 275.88 158.66 275.31 158.25C274.73 157.84 273.96 157.63 273.01 157.63H272.58V166.43H267.62V144.62H274.78C277.7 144.62 279.86 144.81 281.24 145.19C282.62 145.57 283.68 146.3 284.41 147.36C285.14 148.43 285.5 149.6 285.5 150.89C285.5 152.44 284.97 153.76 283.92 154.86C282.86 155.96 281.23 156.67 279.04 157V157.06C280.55 157.67 282.12 159.06 283.77 161.24L287.68 166.43ZM247.78 166.43H229.66V144.62H247.29V148.27H234.62V153.17H246.25V156.82H234.62V162.76H247.78V166.43ZM210.74 166.43H191.71V144.62H196.67V162.77H210.74V166.43ZM172.79 166.43H153.76V144.62H158.72V162.77H172.79V166.43ZM133.93 166.43H115.81V144.62H133.44V148.27H120.77V153.17H132.4V156.82H120.77V162.76H133.93V166.43ZM97.9 144.62L94.71 166.43H91.01L87.08 159.11L86.68 157.88L86.32 159.11L82.39 166.43H78.3L75.12 144.62H80.08L81.45 156.37L81.72 160.49L82.7 158.26L86.31 151.53H87.11L90.72 158.26L91.68 160.49L91.96 156.37L93.34 144.62H97.9ZM58.03 166.43H39.91V144.62H57.54V148.27H44.88V153.17H56.51V156.82H44.88V162.76H58.04V166.43H58.03ZM18.56 158.38C18.56 159.58 18.47 160.64 18.3 161.56C18.13 162.48 17.67 163.37 16.93 164.23C16.19 165.09 15.19 165.73 13.93 166.15C12.67 166.58 11.2 166.79 9.53996 166.79C3.85996 166.79 0.909961 164.41 0.709961 159.66L5.91996 159.11C6.04996 161.71 7.31996 163.01 9.72996 163.01C11.1 163.01 12.09 162.73 12.7 162.16C13.31 161.59 13.62 160.43 13.62 158.68V144.61H18.55V158.38H18.56Z" fill="white"/>
<path d="M18.57 202.66C18.67 202.66 18.75 202.69 18.82 202.76L19.4 203.38C18.97 203.83 18.51 204.24 18.01 204.61C17.51 204.97 16.96 205.28 16.37 205.54C15.77 205.8 15.12 206 14.41 206.13C13.7 206.27 12.92 206.34 12.07 206.34C10.65 206.34 9.33998 206.09 8.15998 205.59C6.96998 205.09 5.95998 204.39 5.09998 203.47C4.24998 202.56 3.58998 201.45 3.11998 200.15C2.64998 198.85 2.41998 197.41 2.41998 195.82C2.41998 194.26 2.65998 192.84 3.14998 191.55C3.63998 190.26 4.30998 189.16 5.17998 188.23C6.04998 187.31 7.09998 186.59 8.31998 186.08C9.53998 185.57 10.88 185.32 12.35 185.32C13.75 185.32 15 185.54 16.08 185.97C17.16 186.4 18.15 187.02 19.04 187.81L18.59 188.46C18.51 188.58 18.39 188.63 18.23 188.63C18.11 188.63 17.92 188.52 17.66 188.31C17.4 188.1 17.04 187.86 16.57 187.61C16.11 187.35 15.53 187.12 14.84 186.91C14.15 186.7 13.32 186.59 12.35 186.59C11.11 186.59 9.97998 186.8 8.94998 187.23C7.91998 187.66 7.02998 188.27 6.28998 189.06C5.54998 189.85 4.96998 190.82 4.55998 191.96C4.14998 193.1 3.93998 194.38 3.93998 195.81C3.93998 197.26 4.14998 198.56 4.56998 199.7C4.98998 200.84 5.56998 201.81 6.29998 202.6C7.03998 203.39 7.89998 203.99 8.90998 204.41C9.91998 204.83 10.99 205.04 12.15 205.04C12.89 205.04 13.54 204.99 14.12 204.89C14.7 204.79 15.22 204.65 15.71 204.45C16.19 204.26 16.64 204.02 17.06 203.74C17.48 203.46 17.89 203.13 18.29 202.75C18.34 202.71 18.39 202.68 18.44 202.66C18.47 202.67 18.52 202.66 18.57 202.66Z" fill="white"/>
<path d="M37.33 204.88L37.3 206.11H25V185.57H37.3V186.8H26.49V195.1H35.49V196.31H26.49V204.87H37.33V204.88Z" fill="white"/>
<path d="M56.81 186.84H49.6V206.11H48.1V186.84H40.84V185.58H56.81V186.84Z" fill="white"/>
<path d="M68.19 194.86C69.33 194.86 70.33 194.98 71.19 195.23C72.05 195.48 72.76 195.83 73.32 196.3C73.89 196.77 74.31 197.34 74.59 198.01C74.87 198.68 75.01 199.43 75.01 200.27C75.01 201.17 74.86 201.98 74.55 202.7C74.24 203.42 73.8 204.03 73.22 204.54C72.64 205.05 71.92 205.43 71.07 205.7C70.22 205.97 69.25 206.11 68.15 206.11H61.88V185.57H63.38V194.86H68.19ZM68.16 204.92C69.96 204.92 71.3 204.52 72.2 203.72C73.09 202.92 73.53 201.82 73.53 200.4C73.53 198.96 73.09 197.87 72.21 197.14C71.33 196.41 69.99 196.04 68.19 196.04H63.39V204.91H68.16V204.92Z" fill="white"/>
<path d="M89.1 187.45C89.86 186.77 90.71 186.26 91.65 185.9C92.58 185.55 93.67 185.37 94.92 185.37C95.91 185.37 96.8 185.5 97.59 185.75C98.38 186.01 99.06 186.36 99.61 186.82C100.17 187.28 100.59 187.81 100.89 188.44C101.19 189.07 101.34 189.74 101.34 190.46C101.34 191.03 101.25 191.56 101.08 192.04C100.91 192.52 100.67 192.96 100.36 193.35C100.05 193.74 99.69 194.07 99.28 194.36C98.86 194.65 98.41 194.87 97.93 195.05C98.56 195.24 99.13 195.51 99.63 195.83C100.13 196.16 100.56 196.54 100.91 196.98C101.26 197.42 101.53 197.9 101.72 198.43C101.91 198.96 102 199.52 102 200.11C102 200.97 101.84 201.78 101.52 202.53C101.2 203.28 100.73 203.94 100.12 204.5C99.51 205.06 98.75 205.5 97.86 205.82C96.97 206.14 95.95 206.3 94.81 206.3C94.06 206.3 93.38 206.24 92.74 206.11C92.11 205.98 91.52 205.81 90.98 205.57C90.44 205.33 89.94 205.06 89.48 204.73C89.02 204.4 88.59 204.03 88.2 203.61L88.61 202.97C88.73 202.83 88.86 202.75 89.02 202.75C89.12 202.75 89.24 202.81 89.38 202.92C89.52 203.03 89.7 203.18 89.92 203.35C90.13 203.52 90.39 203.7 90.68 203.9C90.97 204.1 91.32 204.28 91.72 204.45C92.12 204.62 92.58 204.76 93.09 204.88C93.6 205 94.19 205.05 94.85 205.05C95.76 205.05 96.57 204.93 97.28 204.69C97.99 204.45 98.59 204.11 99.08 203.67C99.57 203.23 99.94 202.72 100.2 202.12C100.46 201.52 100.58 200.87 100.58 200.17C100.58 199.54 100.47 198.95 100.24 198.41C100.01 197.86 99.68 197.39 99.23 196.98C98.78 196.57 98.24 196.25 97.6 196.02C96.96 195.79 96.22 195.67 95.4 195.67H92.7V194.42H95.46C96.05 194.42 96.62 194.33 97.16 194.16C97.7 193.99 98.18 193.73 98.59 193.4C99 193.07 99.33 192.66 99.57 192.18C99.81 191.7 99.93 191.15 99.93 190.53C99.93 189.95 99.81 189.42 99.58 188.93C99.35 188.45 99.02 188.03 98.59 187.67C98.16 187.32 97.64 187.04 97.02 186.85C96.4 186.66 95.71 186.56 94.94 186.56C94.35 186.56 93.83 186.6 93.37 186.69C92.91 186.78 92.51 186.88 92.16 187.01C91.81 187.14 91.5 187.28 91.25 187.43C90.99 187.58 90.77 187.72 90.59 187.85C90.41 187.98 90.25 188.08 90.13 188.17C90 188.26 89.9 188.3 89.81 188.3C89.66 188.3 89.53 188.22 89.43 188.05L89.1 187.45Z" fill="white"/>
<path d="M123.85 206.11H122.7C122.56 206.11 122.45 206.07 122.37 206C122.28 205.93 122.22 205.83 122.17 205.72L119.76 199.76H109.67L107.26 205.72C107.22 205.83 107.15 205.92 107.06 206C106.97 206.08 106.85 206.12 106.71 206.12H105.58L113.98 185.58H115.45L123.85 206.11ZM119.31 198.65L115.13 188.27C114.98 187.93 114.84 187.52 114.71 187.05C114.65 187.28 114.59 187.5 114.52 187.71C114.45 187.92 114.38 188.11 114.3 188.28L110.12 198.64H119.31V198.65Z" fill="white"/>
<path d="M134.78 185.57C135.95 185.57 136.97 185.69 137.83 185.92C138.69 186.15 139.4 186.49 139.96 186.94C140.52 187.39 140.94 187.94 141.21 188.59C141.48 189.24 141.62 189.97 141.62 190.8C141.62 191.34 141.53 191.86 141.34 192.37C141.15 192.87 140.88 193.34 140.53 193.76C140.18 194.18 139.74 194.56 139.22 194.87C138.7 195.18 138.11 195.42 137.44 195.59C139.06 195.82 140.3 196.36 141.16 197.19C142.03 198.03 142.46 199.13 142.46 200.49C142.46 201.36 142.31 202.14 142 202.84C141.69 203.54 141.24 204.13 140.65 204.61C140.06 205.09 139.33 205.46 138.47 205.72C137.61 205.98 136.63 206.1 135.54 206.1H128.88V185.56H134.78V185.57ZM130.36 186.75V195.18H134.8C135.75 195.18 136.56 195.06 137.23 194.82C137.9 194.58 138.45 194.26 138.88 193.86C139.31 193.46 139.63 193.01 139.83 192.51C140.03 192.01 140.13 191.49 140.13 190.96C140.13 189.58 139.69 188.53 138.82 187.82C137.94 187.11 136.59 186.75 134.76 186.75H130.36ZM135.52 204.92C137.32 204.92 138.68 204.53 139.61 203.75C140.53 202.97 141 201.87 141 200.46C141 199.81 140.88 199.23 140.63 198.71C140.38 198.19 140.03 197.75 139.56 197.39C139.1 197.03 138.52 196.75 137.85 196.56C137.17 196.37 136.4 196.27 135.54 196.27H130.37V204.92H135.52Z" fill="white"/>
<path d="M167.08 195.83C167.08 197.42 166.84 198.86 166.37 200.15C165.9 201.44 165.23 202.54 164.37 203.46C163.51 204.38 162.48 205.08 161.27 205.58C160.07 206.08 158.74 206.33 157.29 206.33C155.84 206.33 154.51 206.08 153.31 205.58C152.11 205.08 151.08 204.38 150.22 203.46C149.36 202.55 148.69 201.44 148.22 200.15C147.75 198.86 147.51 197.42 147.51 195.83C147.51 194.25 147.75 192.82 148.22 191.53C148.69 190.24 149.36 189.13 150.22 188.22C151.08 187.31 152.11 186.6 153.31 186.09C154.51 185.58 155.84 185.34 157.29 185.34C158.74 185.34 160.07 185.59 161.27 186.09C162.47 186.59 163.51 187.3 164.37 188.22C165.23 189.14 165.9 190.24 166.37 191.54C166.85 192.82 167.08 194.26 167.08 195.83ZM165.55 195.83C165.55 194.4 165.35 193.11 164.95 191.97C164.55 190.83 163.99 189.86 163.27 189.07C162.54 188.28 161.67 187.67 160.66 187.25C159.65 186.83 158.52 186.62 157.29 186.62C156.07 186.62 154.95 186.83 153.94 187.25C152.92 187.67 152.05 188.28 151.32 189.07C150.59 189.86 150.02 190.83 149.62 191.97C149.22 193.11 149.02 194.4 149.02 195.83C149.02 197.27 149.22 198.56 149.62 199.7C150.02 200.84 150.59 201.8 151.32 202.6C152.05 203.39 152.92 204 153.94 204.41C154.96 204.83 156.07 205.03 157.29 205.03C158.52 205.03 159.64 204.82 160.66 204.41C161.68 204 162.55 203.39 163.27 202.6C164 201.81 164.56 200.84 164.95 199.7C165.35 198.57 165.55 197.28 165.55 195.83Z" fill="white"/>
<path d="M190.68 204.92V210.78C190.68 210.93 190.63 211.04 190.54 211.13C190.45 211.22 190.32 211.26 190.17 211.26H189.31V206.11H170.94V210.78C170.94 210.93 170.89 211.04 170.8 211.13C170.71 211.22 170.58 211.26 170.43 211.26H169.57V204.92H171.49C171.84 204.78 172.18 204.54 172.51 204.19C172.84 203.84 173.16 203.35 173.46 202.71C173.76 202.07 174.04 201.27 174.31 200.3C174.58 199.33 174.82 198.16 175.03 196.77C175.24 195.39 175.43 193.77 175.58 191.92C175.73 190.07 175.86 187.95 175.94 185.56H187.1V204.91H190.68V204.92ZM185.62 204.92V186.76H177.36C177.22 189.6 177.04 192.06 176.79 194.12C176.55 196.18 176.26 197.93 175.93 199.37C175.6 200.81 175.23 201.97 174.81 202.85C174.39 203.74 173.94 204.43 173.46 204.92H185.62Z" fill="white"/>
<path d="M211.7 206.11H210.55C210.41 206.11 210.3 206.07 210.22 206C210.13 205.93 210.07 205.83 210.02 205.72L207.61 199.76H197.52L195.11 205.72C195.07 205.83 195 205.92 194.91 206C194.82 206.08 194.7 206.12 194.56 206.12H193.43L201.83 185.58H203.3L211.7 206.11ZM207.16 198.65L202.98 188.27C202.83 187.93 202.69 187.52 202.56 187.05C202.5 187.28 202.44 187.5 202.37 187.71C202.3 187.92 202.23 188.11 202.15 188.28L197.97 198.64H207.16V198.65Z" fill="white"/>
<path d="M215.69 196.91H222.44V198.09H215.69V196.91Z" fill="white"/>
<path d="M244.01 206.11H242.51V186.76H230.58V206.11H229.08V185.57H244V206.11H244.01Z" fill="white"/>
<path d="M257.02 185.57C259.43 185.57 261.25 186.1 262.47 187.15C263.69 188.2 264.31 189.71 264.31 191.66C264.31 192.56 264.14 193.39 263.8 194.14C263.46 194.89 262.98 195.55 262.35 196.09C261.72 196.64 260.96 197.06 260.06 197.37C259.16 197.68 258.15 197.83 257.03 197.83H253.21V206.1H251.71V185.56H257.02V185.57ZM257.02 196.65C257.92 196.65 258.73 196.52 259.44 196.27C260.16 196.02 260.76 195.67 261.26 195.23C261.76 194.79 262.14 194.26 262.41 193.66C262.68 193.05 262.81 192.39 262.81 191.68C262.81 190.1 262.33 188.89 261.36 188.04C260.39 187.19 258.95 186.76 257.02 186.76H253.2V196.66H257.02V196.65Z" fill="white"/>
<path d="M288.36 195.83C288.36 197.42 288.12 198.86 287.65 200.15C287.18 201.44 286.51 202.54 285.65 203.46C284.79 204.38 283.76 205.08 282.55 205.58C281.34 206.08 280.02 206.33 278.57 206.33C277.12 206.33 275.79 206.08 274.59 205.58C273.39 205.08 272.36 204.38 271.5 203.46C270.64 202.55 269.97 201.44 269.5 200.15C269.03 198.86 268.79 197.42 268.79 195.83C268.79 194.25 269.03 192.82 269.5 191.53C269.97 190.24 270.64 189.13 271.5 188.22C272.36 187.31 273.39 186.6 274.59 186.09C275.79 185.59 277.12 185.34 278.57 185.34C280.02 185.34 281.35 185.59 282.55 186.09C283.75 186.59 284.79 187.3 285.65 188.22C286.51 189.14 287.18 190.24 287.65 191.54C288.12 192.82 288.36 194.26 288.36 195.83ZM286.82 195.83C286.82 194.4 286.62 193.11 286.22 191.97C285.82 190.83 285.26 189.86 284.54 189.07C283.81 188.28 282.94 187.67 281.93 187.25C280.92 186.83 279.79 186.62 278.56 186.62C277.34 186.62 276.22 186.83 275.21 187.25C274.19 187.67 273.32 188.28 272.59 189.07C271.86 189.86 271.29 190.83 270.89 191.97C270.49 193.11 270.29 194.4 270.29 195.83C270.29 197.27 270.49 198.56 270.89 199.7C271.29 200.84 271.86 201.8 272.59 202.6C273.32 203.39 274.19 204 275.21 204.41C276.23 204.83 277.34 205.03 278.56 205.03C279.79 205.03 280.91 204.82 281.93 204.41C282.95 204 283.82 203.39 284.54 202.6C285.27 201.81 285.83 200.84 286.22 199.7C286.61 198.56 286.82 197.28 286.82 195.83Z" fill="white"/>
<path d="M310.57 185.57V206.11H309.07V189.24C309.07 188.93 309.08 188.61 309.09 188.29C309.1 187.97 309.13 187.63 309.17 187.28C309.03 187.58 308.9 187.85 308.76 188.1C308.62 188.35 308.49 188.58 308.35 188.79L296.49 205.64C296.41 205.77 296.31 205.88 296.19 205.97C296.07 206.06 295.94 206.11 295.79 206.11H294.7V185.57H296.2V202.44C296.2 202.75 296.2 203.06 296.19 203.38C296.18 203.7 296.16 204.03 296.12 204.37C296.25 204.08 296.38 203.81 296.51 203.56C296.65 203.31 296.78 203.08 296.92 202.87L308.79 186.03C308.87 185.9 308.96 185.8 309.08 185.7C309.2 185.6 309.33 185.56 309.47 185.56H310.57V185.57Z" fill="white"/>
<path d="M317.05 187.45C317.81 186.77 318.66 186.26 319.6 185.9C320.53 185.55 321.62 185.37 322.87 185.37C323.86 185.37 324.75 185.5 325.54 185.75C326.33 186.01 327.01 186.36 327.56 186.82C328.11 187.28 328.54 187.81 328.85 188.44C329.15 189.06 329.3 189.74 329.3 190.46C329.3 191.03 329.21 191.56 329.04 192.04C328.87 192.52 328.63 192.96 328.32 193.35C328.01 193.74 327.65 194.07 327.24 194.36C326.83 194.65 326.37 194.87 325.89 195.05C326.52 195.24 327.08 195.51 327.59 195.83C328.09 196.16 328.52 196.54 328.87 196.98C329.22 197.42 329.49 197.9 329.68 198.43C329.87 198.96 329.96 199.52 329.96 200.11C329.96 200.97 329.8 201.78 329.48 202.53C329.16 203.28 328.69 203.94 328.08 204.5C327.47 205.06 326.71 205.5 325.82 205.82C324.93 206.14 323.91 206.3 322.77 206.3C322.02 206.3 321.34 206.24 320.7 206.11C320.07 205.98 319.48 205.81 318.94 205.57C318.4 205.34 317.9 205.06 317.44 204.73C316.98 204.4 316.55 204.03 316.16 203.61L316.57 202.97C316.69 202.83 316.82 202.75 316.98 202.75C317.08 202.75 317.2 202.81 317.34 202.92C317.48 203.04 317.66 203.18 317.88 203.35C318.09 203.52 318.35 203.7 318.64 203.9C318.93 204.1 319.28 204.28 319.68 204.45C320.08 204.62 320.54 204.76 321.05 204.88C321.56 205 322.15 205.05 322.81 205.05C323.72 205.05 324.53 204.93 325.24 204.69C325.95 204.45 326.55 204.11 327.04 203.67C327.53 203.23 327.9 202.72 328.16 202.12C328.42 201.52 328.54 200.87 328.54 200.17C328.54 199.54 328.43 198.95 328.2 198.41C327.97 197.87 327.64 197.39 327.19 196.98C326.74 196.57 326.2 196.25 325.56 196.02C324.92 195.79 324.18 195.67 323.36 195.67H320.66V194.42H323.42C324.01 194.42 324.58 194.33 325.12 194.16C325.66 193.99 326.14 193.73 326.55 193.4C326.96 193.07 327.29 192.66 327.53 192.18C327.77 191.7 327.89 191.15 327.89 190.53C327.89 189.95 327.77 189.42 327.54 188.93C327.31 188.45 326.98 188.03 326.55 187.67C326.12 187.31 325.6 187.04 324.98 186.85C324.36 186.66 323.67 186.56 322.9 186.56C322.31 186.56 321.79 186.6 321.33 186.69C320.87 186.78 320.47 186.88 320.12 187.01C319.77 187.14 319.46 187.28 319.21 187.43C318.95 187.58 318.73 187.72 318.55 187.85C318.37 187.98 318.21 188.08 318.09 188.17C317.96 188.26 317.86 188.3 317.77 188.3C317.61 188.3 317.49 188.22 317.39 188.05L317.05 187.45Z" fill="white"/>
<path d="M342.28 185.57C343.45 185.57 344.47 185.69 345.33 185.92C346.19 186.15 346.9 186.49 347.46 186.94C348.02 187.39 348.44 187.94 348.71 188.59C348.98 189.24 349.12 189.97 349.12 190.8C349.12 191.34 349.03 191.86 348.84 192.37C348.65 192.87 348.38 193.34 348.03 193.76C347.68 194.18 347.24 194.56 346.72 194.87C346.2 195.18 345.61 195.42 344.94 195.59C346.56 195.82 347.8 196.36 348.66 197.19C349.52 198.02 349.96 199.13 349.96 200.49C349.96 201.36 349.81 202.14 349.5 202.84C349.19 203.54 348.74 204.13 348.15 204.61C347.56 205.09 346.83 205.46 345.97 205.72C345.11 205.98 344.13 206.1 343.04 206.1H336.38V185.56H342.28V185.57ZM337.87 186.75V195.18H342.31C343.26 195.18 344.07 195.06 344.74 194.82C345.41 194.58 345.96 194.26 346.4 193.86C346.83 193.46 347.15 193.01 347.35 192.51C347.55 192.01 347.65 191.49 347.65 190.96C347.65 189.58 347.21 188.53 346.34 187.82C345.47 187.11 344.11 186.75 342.28 186.75H337.87ZM343.02 204.92C344.82 204.92 346.18 204.53 347.11 203.75C348.03 202.97 348.5 201.87 348.5 200.46C348.5 199.81 348.38 199.23 348.13 198.71C347.88 198.19 347.53 197.75 347.06 197.39C346.6 197.03 346.02 196.75 345.35 196.56C344.67 196.37 343.9 196.27 343.04 196.27H337.87V204.92H343.02Z" fill="white"/>
<path d="M374.58 195.83C374.58 197.42 374.34 198.86 373.87 200.15C373.4 201.44 372.73 202.54 371.87 203.46C371.01 204.38 369.98 205.08 368.77 205.58C367.56 206.08 366.24 206.33 364.79 206.33C363.34 206.33 362.01 206.08 360.81 205.58C359.61 205.08 358.58 204.38 357.72 203.46C356.86 202.55 356.19 201.44 355.72 200.15C355.25 198.86 355.01 197.42 355.01 195.83C355.01 194.25 355.25 192.82 355.72 191.53C356.19 190.24 356.86 189.13 357.72 188.22C358.58 187.31 359.61 186.6 360.81 186.09C362.01 185.59 363.34 185.34 364.79 185.34C366.24 185.34 367.57 185.59 368.77 186.09C369.97 186.59 371.01 187.3 371.87 188.22C372.73 189.14 373.4 190.24 373.87 191.54C374.35 192.82 374.58 194.26 374.58 195.83ZM373.05 195.83C373.05 194.4 372.85 193.11 372.45 191.97C372.05 190.83 371.49 189.86 370.77 189.07C370.04 188.28 369.17 187.67 368.16 187.25C367.15 186.83 366.02 186.62 364.79 186.62C363.57 186.62 362.45 186.83 361.44 187.25C360.42 187.67 359.55 188.28 358.82 189.07C358.09 189.86 357.52 190.83 357.12 191.97C356.72 193.11 356.52 194.4 356.52 195.83C356.52 197.27 356.72 198.56 357.12 199.7C357.52 200.84 358.09 201.8 358.82 202.6C359.55 203.39 360.42 204 361.44 204.41C362.46 204.83 363.57 205.03 364.79 205.03C366.02 205.03 367.14 204.82 368.16 204.41C369.18 204 370.05 203.39 370.77 202.6C371.5 201.81 372.06 200.84 372.45 199.7C372.84 198.56 373.05 197.28 373.05 195.83Z" fill="white"/>
<path d="M398.19 204.92V210.78C398.19 210.93 398.14 211.04 398.05 211.13C397.96 211.22 397.84 211.26 397.68 211.26H396.82V206.11H378.45V210.78C378.45 210.93 378.4 211.04 378.31 211.13C378.22 211.22 378.09 211.26 377.94 211.26H377.08V204.92H379C379.35 204.78 379.69 204.54 380.02 204.19C380.35 203.84 380.67 203.35 380.97 202.71C381.27 202.07 381.55 201.27 381.82 200.3C382.09 199.33 382.33 198.16 382.54 196.77C382.75 195.39 382.94 193.77 383.09 191.92C383.24 190.07 383.37 187.95 383.45 185.56H394.61V204.91H398.19V204.92ZM393.12 204.92V186.76H384.86C384.72 189.6 384.54 192.06 384.29 194.12C384.05 196.18 383.76 197.93 383.43 199.37C383.1 200.81 382.73 201.97 382.31 202.85C381.89 203.74 381.44 204.43 380.96 204.92H393.12Z" fill="white"/>
<path d="M419.4 185.57V206.11H417.9V189.24C417.9 188.93 417.91 188.61 417.92 188.29C417.93 187.97 417.96 187.63 418 187.28C417.86 187.58 417.73 187.85 417.59 188.1C417.45 188.35 417.32 188.58 417.18 188.79L405.32 205.64C405.24 205.77 405.14 205.88 405.02 205.97C404.9 206.06 404.77 206.11 404.62 206.11H403.53V185.57H405.03V202.44C405.03 202.75 405.03 203.06 405.02 203.38C405.01 203.7 404.99 204.03 404.95 204.37C405.08 204.08 405.21 203.81 405.34 203.56C405.48 203.31 405.61 203.08 405.75 202.87L417.62 186.03C417.7 185.9 417.79 185.8 417.91 185.7C418.03 185.6 418.16 185.56 418.3 185.56H419.4V185.57Z" fill="white"/>
<path d="M440.45 186.84H433.24V206.11H431.74V186.84H424.48V185.58H440.44V186.84H440.45Z" fill="white"/>
<path d="M457.86 204.88L457.83 206.11H445.52V185.57H457.83V186.8H447.02V195.1H456.02V196.31H447.02V204.87H457.86V204.88Z" fill="white"/>
<path d="M478.34 206.11H476.84V186.76H468.58C468.45 189.48 468.29 191.85 468.07 193.88C467.86 195.91 467.6 197.64 467.31 199.09C467.02 200.54 466.68 201.72 466.31 202.65C465.94 203.58 465.53 204.31 465.08 204.85C464.63 205.39 464.14 205.76 463.62 205.97C463.1 206.18 462.55 206.28 461.96 206.28C461.65 206.28 461.38 206.25 461.15 206.19C460.92 206.13 460.8 206.05 460.8 205.94V205.01H461.67C462.12 205.01 462.55 204.91 462.96 204.71C463.38 204.51 463.77 204.15 464.14 203.62C464.51 203.09 464.86 202.37 465.18 201.45C465.5 200.53 465.79 199.35 466.04 197.92C466.3 196.48 466.52 194.75 466.71 192.72C466.9 190.69 467.05 188.31 467.17 185.56H478.33V206.11H478.34Z" fill="white"/>
<path d="M498.78 206.11H497.28V196.82H493.62C493.34 196.82 493.08 196.84 492.84 196.89C492.6 196.93 492.37 197.01 492.14 197.13C491.91 197.25 491.68 197.41 491.44 197.62C491.2 197.83 490.97 198.1 490.71 198.43L485.21 205.57C485.1 205.74 484.97 205.87 484.8 205.97C484.63 206.07 484.44 206.12 484.22 206.12H483.12L489.16 198.27C489.47 197.85 489.78 197.52 490.1 197.25C490.42 196.99 490.75 196.78 491.1 196.63C490.19 196.53 489.39 196.34 488.71 196.04C488.02 195.75 487.45 195.37 487 194.9C486.54 194.44 486.2 193.89 485.97 193.26C485.74 192.63 485.62 191.94 485.62 191.18C485.62 190.31 485.77 189.53 486.07 188.84C486.37 188.15 486.81 187.56 487.39 187.08C487.97 186.6 488.69 186.23 489.54 185.97C490.39 185.71 491.36 185.59 492.46 185.59H498.77V206.11H498.78ZM497.28 195.63V186.76H492.46C490.66 186.76 489.32 187.14 488.42 187.91C487.53 188.67 487.09 189.76 487.09 191.18C487.09 192.62 487.53 193.72 488.41 194.49C489.29 195.25 490.63 195.64 492.44 195.64H497.28V195.63Z" fill="white"/>
</g>
<defs>
<clipPath id="clip0_25_2">
<rect width="500" height="212" fill="white"/>
</clipPath>
</defs>
</svg>
